<?xml version="1.0" encoding="utf-8"?>
<!-- Generator: Adobe Illustrator 16.0.0, SVG Export Plug-In . SVG Version: 6.00 Build 0)  -->
<!DOCTYPE svg PUBLIC "-//W3C//DTD SVG 1.1//EN" "http://www.w3.org/Graphics/SVG/1.1/DTD/svg11.dtd">
<svg version="1.1" id="Calque_1" xmlns="http://www.w3.org/2000/svg" xmlns:xlink="http://www.w3.org/1999/xlink" x="0px" y="0px"
	 width="123.376px" height="125.975px" viewBox="0 0 123.376 125.975" enable-background="new 0 0 123.376 125.975"
	 xml:space="preserve">
<g>
	<path fill="#FFFFFF" d="M122.3,56.163c0,7.161-1.11,13.716-3.328,19.666c-2.22,5.95-5.346,10.563-9.379,13.841
		c-4.034,3.278-8.673,4.916-13.917,4.916c-4.337,0-7.992-1.311-10.967-3.933c-2.976-2.621-4.74-5.976-5.295-10.06H78.81
		c-2.018,4.387-4.904,7.816-8.66,10.287c-3.757,2.471-8.207,3.705-13.35,3.705c-7.563,0-13.477-2.583-17.736-7.752
		c-4.262-5.168-6.392-12.189-6.392-21.064c0-10.287,2.975-18.644,8.925-25.073c5.949-6.429,13.766-9.644,23.447-9.644
		c3.428,0,7.311,0.315,11.647,0.946c4.336,0.631,8.244,1.5,11.724,2.609l-1.891,35.548v1.664c0,8.976,3.353,13.463,10.06,13.463
		c4.587,0,8.319-2.71,11.193-8.131c2.874-5.42,4.312-12.467,4.312-21.14c0-9.126-1.866-17.119-5.597-23.977
		c-3.732-6.857-9.039-12.14-15.922-15.846S75.785,10.63,66.86,10.63c-11.245,0-21.027,2.333-29.347,6.996
		c-8.32,4.665-14.673,11.321-19.06,19.968c-4.387,8.648-6.581,18.644-6.581,29.989c0,15.381,4.059,27.205,12.177,35.474
		c8.118,8.269,19.817,12.404,35.095,12.404c10.589,0,21.58-2.169,32.977-6.505v10.06c-9.682,4.235-20.675,6.354-32.977,6.354
		c-18.304,0-32.512-5.03-42.621-15.089C6.414,100.22,1.359,86.165,1.359,68.113c0-13.11,2.697-24.783,8.093-35.019
		C14.847,22.858,22.537,14.93,32.521,9.307c9.984-5.622,21.43-8.433,34.339-8.433c10.84,0,20.483,2.282,28.93,6.845
		c8.445,4.564,14.977,11.043,19.59,19.438S122.3,45.222,122.3,56.163z M44.093,66.071c0,12.809,4.916,19.211,14.749,19.211
		c10.438,0,16.11-7.891,17.018-23.674l1.059-19.741c-3.63-1.008-7.589-1.513-11.874-1.513c-6.556,0-11.686,2.269-15.392,6.807
		S44.093,58.004,44.093,66.071z"/>
</g>
<g>
</g>
<g>
</g>
<g>
</g>
<g>
</g>
<g>
</g>
<g>
</g>
<g>
</g>
<g>
</g>
<g>
</g>
<g>
</g>
<g>
</g>
<g>
</g>
<g>
</g>
<g>
</g>
<g>
</g>
</svg>
