<?xml version="1.0" encoding="utf-8"?>
<!-- Generator: Adobe Illustrator 16.0.0, SVG Export Plug-In . SVG Version: 6.00 Build 0)  -->
<!DOCTYPE svg PUBLIC "-//W3C//DTD SVG 1.1//EN" "http://www.w3.org/Graphics/SVG/1.1/DTD/svg11.dtd">
<svg version="1.1" id="Calque_1" xmlns="http://www.w3.org/2000/svg" xmlns:xlink="http://www.w3.org/1999/xlink" x="0px" y="0px"
	 width="124.663px" height="224.397px" viewBox="0 0 124.663 224.397" enable-background="new 0 0 124.663 224.397"
	 xml:space="preserve">
<g>
	<g>
		<path fill-rule="evenodd" clip-rule="evenodd" fill="#FFFFFF" d="M108.271,0h-91.88C7.34,0,0,7.268,0,16.232v191.919
			c0,8.971,7.34,16.246,16.391,16.246h91.88c9.044,0,16.392-7.275,16.392-16.246V16.232C124.663,7.268,117.315,0,108.271,0z
			 M48.559,10.74h31.102c1.247,0,2.262,2.391,2.262,5.34c0,2.949-1.015,5.341-2.262,5.341H48.559c-1.246,0-2.261-2.392-2.261-5.341
			C46.298,13.131,47.313,10.74,48.559,10.74z M63.915,218.788c-7.826,0-14.175-6.275-14.175-14.029
			c0-7.74,6.349-14.029,14.175-14.029s14.181,6.289,14.181,14.029C78.095,212.513,71.741,218.788,63.915,218.788z M111.459,182.005
			H15.74V31.783h95.72V182.005z"/>
	</g>
</g>
</svg>
